<?xml version="1.0" encoding="UTF-8" standalone="no"?>
<!DOCTYPE svg PUBLIC "-//W3C//DTD SVG 1.1//EN"
 "http://www.w3.org/Graphics/SVG/1.1/DTD/svg11.dtd">
<!-- Generated by graphviz version 2.26.3 (20100126.1600)
 -->
<!-- Title: G Pages: 1 -->
<svg width="788pt" height="1646pt"
 viewBox="0.00 0.00 788.00 1646.00" xmlns="http://www.w3.org/2000/svg" xmlns:xlink="http://www.w3.org/1999/xlink">
<g id="graph1" class="graph" transform="scale(1 1) rotate(0) translate(4 1642)">
<title>G</title>
<polygon fill="white" stroke="white" points="-4,5 -4,-1642 785,-1642 785,5 -4,5"/>
<g id="graph2" class="cluster"><title>cluster_Global</title>
<polyline fill="none" stroke="gray" points="204,-206 760,-206 "/>
<path fill="none" stroke="gray" d="M760,-206C766,-206 772,-212 772,-218"/>
<polyline fill="none" stroke="gray" points="772,-218 772,-1618 "/>
<path fill="none" stroke="gray" d="M772,-1618C772,-1624 766,-1630 760,-1630"/>
<polyline fill="none" stroke="gray" points="760,-1630 204,-1630 "/>
<path fill="none" stroke="gray" d="M204,-1630C198,-1630 192,-1624 192,-1618"/>
<polyline fill="none" stroke="gray" points="192,-1618 192,-218 "/>
<path fill="none" stroke="gray" d="M192,-218C192,-212 198,-206 204,-206"/>
<text text-anchor="middle" x="482" y="-1616.1" font-family="Times Roman,serif" font-size="11.00" fill="gray">\</text>
</g>
<!-- \\PagesController -->
<g id="node2" class="node"><title>\\PagesController</title>
<polygon fill="none" stroke="black" points="736,-1546 636,-1546 636,-1510 736,-1510 736,-1546"/>
<text text-anchor="middle" x="686" y="-1525.1" font-family="Times Roman,serif" font-size="11.00">PagesController</text>
</g>
<!-- \\ContentsAppController -->
<g id="node32" class="node"><title>\\ContentsAppController</title>
<polygon fill="none" stroke="black" points="519,-1465 379,-1465 379,-1429 519,-1429 519,-1465"/>
<text text-anchor="middle" x="449" y="-1444.1" font-family="Times Roman,serif" font-size="11.00">ContentsAppController</text>
</g>
<!-- \\PagesController&#45;&gt;\\ContentsAppController -->
<g id="edge3" class="edge"><title>\\PagesController&#45;&gt;\\ContentsAppController</title>
<path fill="none" stroke="black" d="M635.448,-1510.72C599.229,-1498.34 550.219,-1481.59 511.537,-1468.37"/>
<polygon fill="none" stroke="black" points="512.534,-1465.02 501.939,-1465.09 510.27,-1471.64 512.534,-1465.02"/>
</g>
<!-- \\CtrlComponent -->
<g id="node3" class="node"><title>\\CtrlComponent</title>
<polygon fill="none" stroke="black" points="735,-736 637,-736 637,-700 735,-700 735,-736"/>
<text text-anchor="middle" x="686" y="-715.1" font-family="Times Roman,serif" font-size="11.00">CtrlComponent</text>
</g>
<!-- \\Component -->
<g id="node40" class="node"><title>\\Component</title>
<ellipse fill="none" stroke="black" cx="449" cy="-180" rx="70.9184" ry="18.3848"/>
<text text-anchor="middle" x="449" y="-176.4" font-family="Times Roman,serif" font-size="14.00" fill="gray">\Component</text>
</g>
<!-- \\CtrlComponent&#45;&gt;\\Component -->
<g id="edge5" class="edge"><title>\\CtrlComponent&#45;&gt;\\Component</title>
<path fill="none" stroke="black" d="M636.462,-709.78C625.674,-705.775 615.314,-699.828 608,-691 467.851,-521.837 683.256,-365.014 536,-202 532.436,-198.055 528.277,-194.77 523.743,-192.041"/>
<polygon fill="none" stroke="black" points="525.129,-188.82 514.623,-187.448 521.98,-195.072 525.129,-188.82"/>
</g>
<!-- \\AuditableBehavior -->
<g id="node4" class="node"><title>\\AuditableBehavior</title>
<polygon fill="none" stroke="black" points="743,-520 629,-520 629,-484 743,-484 743,-520"/>
<text text-anchor="middle" x="686" y="-499.1" font-family="Times Roman,serif" font-size="11.00">AuditableBehavior</text>
</g>
<!-- \\ModelBehavior -->
<g id="node42" class="node"><title>\\ModelBehavior</title>
<ellipse fill="none" stroke="black" cx="449" cy="-126" rx="86.9741" ry="18.3848"/>
<text text-anchor="middle" x="449" y="-122.4" font-family="Times Roman,serif" font-size="14.00" fill="gray">\ModelBehavior</text>
</g>
<!-- \\AuditableBehavior&#45;&gt;\\ModelBehavior -->
<g id="edge7" class="edge"><title>\\AuditableBehavior&#45;&gt;\\ModelBehavior</title>
<path fill="none" stroke="black" d="M628.915,-490.034C621.052,-486.305 613.726,-481.414 608,-475 510.342,-365.603 635.414,-260.804 536,-153 532.407,-149.103 528.263,-145.764 523.775,-142.904"/>
<polygon fill="none" stroke="black" points="525.225,-139.707 514.773,-137.971 521.861,-145.846 525.225,-139.707"/>
</g>
<!-- \\UserPrivilege -->
<g id="node5" class="node"><title>\\UserPrivilege</title>
<polygon fill="none" stroke="black" points="729,-898 643,-898 643,-862 729,-862 729,-898"/>
<text text-anchor="middle" x="686" y="-877.1" font-family="Times Roman,serif" font-size="11.00">UserPrivilege</text>
</g>
<!-- \\UsersAppModel -->
<g id="node10" class="node"><title>\\UsersAppModel</title>
<polygon fill="none" stroke="black" points="499,-938 399,-938 399,-902 499,-902 499,-938"/>
<text text-anchor="middle" x="449" y="-917.1" font-family="Times Roman,serif" font-size="11.00">UsersAppModel</text>
</g>
<!-- \\UserPrivilege&#45;&gt;\\UsersAppModel -->
<g id="edge9" class="edge"><title>\\UserPrivilege&#45;&gt;\\UsersAppModel</title>
<path fill="none" stroke="black" d="M642.806,-887.29C605.556,-893.577 551.355,-902.725 509.738,-909.749"/>
<polygon fill="none" stroke="black" points="508.994,-906.325 499.716,-911.44 510.159,-913.227 508.994,-906.325"/>
</g>
<!-- \\UsersAppController -->
<g id="node6" class="node"><title>\\UsersAppController</title>
<polygon fill="none" stroke="black" points="510,-1235 388,-1235 388,-1199 510,-1199 510,-1235"/>
<text text-anchor="middle" x="449" y="-1214.1" font-family="Times Roman,serif" font-size="11.00">UsersAppController</text>
</g>
<!-- \\AppController -->
<g id="node7" class="node"><title>\\AppController</title>
<polygon fill="none" stroke="black" points="290,-1343 200,-1343 200,-1307 290,-1307 290,-1343"/>
<text text-anchor="middle" x="245" y="-1322.1" font-family="Times Roman,serif" font-size="11.00">AppController</text>
</g>
<!-- \\UsersAppController&#45;&gt;\\AppController -->
<g id="edge11" class="edge"><title>\\UsersAppController&#45;&gt;\\AppController</title>
<path fill="none" stroke="black" d="M414.855,-1235.08C380.14,-1253.46 326.233,-1281.99 288.484,-1301.98"/>
<polygon fill="none" stroke="black" points="286.457,-1299.09 279.256,-1306.86 289.732,-1305.28 286.457,-1299.09"/>
</g>
<!-- \\Controller -->
<g id="node46" class="node"><title>\\Controller</title>
<ellipse fill="none" stroke="black" cx="64" cy="-1325" rx="63.1385" ry="18.3848"/>
<text text-anchor="middle" x="64" y="-1321.4" font-family="Times Roman,serif" font-size="14.00" fill="gray">\Controller</text>
</g>
<!-- \\AppController&#45;&gt;\\Controller -->
<g id="edge13" class="edge"><title>\\AppController&#45;&gt;\\Controller</title>
<path fill="none" stroke="black" d="M199.793,-1325C181.076,-1325 158.877,-1325 137.908,-1325"/>
<polygon fill="none" stroke="black" points="137.734,-1321.5 127.734,-1325 137.734,-1328.5 137.734,-1321.5"/>
</g>
<!-- \\UsersController -->
<g id="node8" class="node"><title>\\UsersController</title>
<polygon fill="none" stroke="black" points="736,-1222 636,-1222 636,-1186 736,-1186 736,-1222"/>
<text text-anchor="middle" x="686" y="-1201.1" font-family="Times Roman,serif" font-size="11.00">UsersController</text>
</g>
<!-- \\UsersController&#45;&gt;\\UsersAppController -->
<g id="edge15" class="edge"><title>\\UsersController&#45;&gt;\\UsersAppController</title>
<path fill="none" stroke="black" d="M635.448,-1206.77C602.021,-1208.61 557.7,-1211.04 520.657,-1213.07"/>
<polygon fill="none" stroke="black" points="520.21,-1209.59 510.417,-1213.63 520.594,-1216.58 520.21,-1209.59"/>
</g>
<!-- \\Random -->
<g id="node9" class="node"><title>\\Random</title>
<polygon fill="none" stroke="black" points="717,-1330 655,-1330 655,-1294 717,-1294 717,-1330"/>
<text text-anchor="middle" x="686" y="-1309.1" font-family="Times Roman,serif" font-size="11.00">Random</text>
</g>
<!-- \\AppModel -->
<g id="node16" class="node"><title>\\AppModel</title>
<polygon fill="none" stroke="black" points="280,-1019 210,-1019 210,-983 280,-983 280,-1019"/>
<text text-anchor="middle" x="245" y="-998.1" font-family="Times Roman,serif" font-size="11.00">AppModel</text>
</g>
<!-- \\UsersAppModel&#45;&gt;\\AppModel -->
<g id="edge17" class="edge"><title>\\UsersAppModel&#45;&gt;\\AppModel</title>
<path fill="none" stroke="black" d="M398.468,-934.45C386.413,-938.235 373.663,-942.521 362,-947 337.531,-956.397 310.953,-968.503 289.321,-978.871"/>
<polygon fill="none" stroke="black" points="287.546,-975.841 280.066,-983.345 290.592,-982.144 287.546,-975.841"/>
</g>
<!-- \\UserGroupPrivilege -->
<g id="node11" class="node"><title>\\UserGroupPrivilege</title>
<polygon fill="none" stroke="black" points="509,-1154 389,-1154 389,-1118 509,-1118 509,-1154"/>
<text text-anchor="middle" x="449" y="-1133.1" font-family="Times Roman,serif" font-size="11.00">UserGroupPrivilege</text>
</g>
<!-- \\UserGroupPrivilege&#45;&gt;\\AppModel -->
<g id="edge19" class="edge"><title>\\UserGroupPrivilege&#45;&gt;\\AppModel</title>
<path fill="none" stroke="black" d="M388.552,-1121.09C379.365,-1117.74 370.22,-1113.74 362,-1109 324.351,-1087.28 288.815,-1051.51 266.998,-1027.13"/>
<polygon fill="none" stroke="black" points="269.375,-1024.53 260.142,-1019.34 264.119,-1029.16 269.375,-1024.53"/>
</g>
<!-- \\Content -->
<g id="node12" class="node"><title>\\Content</title>
<polygon fill="none" stroke="black" points="716,-1114 656,-1114 656,-1078 716,-1078 716,-1114"/>
<text text-anchor="middle" x="686" y="-1093.1" font-family="Times Roman,serif" font-size="11.00">Content</text>
</g>
<!-- \\ContentsAppModel -->
<g id="node14" class="node"><title>\\ContentsAppModel</title>
<polygon fill="none" stroke="black" points="508,-1100 390,-1100 390,-1064 508,-1064 508,-1100"/>
<text text-anchor="middle" x="449" y="-1079.1" font-family="Times Roman,serif" font-size="11.00">ContentsAppModel</text>
</g>
<!-- \\Content&#45;&gt;\\ContentsAppModel -->
<g id="edge21" class="edge"><title>\\Content&#45;&gt;\\ContentsAppModel</title>
<path fill="none" stroke="black" d="M655.984,-1094.23C621.707,-1092.2 564.483,-1088.82 518.88,-1086.13"/>
<polygon fill="none" stroke="black" points="518.937,-1082.63 508.748,-1085.53 518.524,-1089.61 518.937,-1082.63"/>
</g>
<!-- \\MetaDataController -->
<g id="node13" class="node"><title>\\MetaDataController</title>
<polygon fill="none" stroke="black" points="747,-1492 625,-1492 625,-1456 747,-1456 747,-1492"/>
<text text-anchor="middle" x="686" y="-1471.1" font-family="Times Roman,serif" font-size="11.00">MetaDataController</text>
</g>
<!-- \\MetaDataController&#45;&gt;\\ContentsAppController -->
<g id="edge23" class="edge"><title>\\MetaDataController&#45;&gt;\\ContentsAppController</title>
<path fill="none" stroke="black" d="M624.35,-1466.98C595.266,-1463.66 560.196,-1459.67 529.086,-1456.12"/>
<polygon fill="none" stroke="black" points="529.469,-1452.64 519.137,-1454.99 528.677,-1459.6 529.469,-1452.64"/>
</g>
<!-- \\ContentsAppModel&#45;&gt;\\AppModel -->
<g id="edge25" class="edge"><title>\\ContentsAppModel&#45;&gt;\\AppModel</title>
<path fill="none" stroke="black" d="M389.208,-1064.58C380.027,-1061.58 370.711,-1058.35 362,-1055 337.531,-1045.6 310.953,-1033.5 289.321,-1023.13"/>
<polygon fill="none" stroke="black" points="290.592,-1019.86 280.066,-1018.66 287.546,-1026.16 290.592,-1019.86"/>
</g>
<!-- \\UserSetting -->
<g id="node15" class="node"><title>\\UserSetting</title>
<polygon fill="none" stroke="black" points="489,-1046 409,-1046 409,-1010 489,-1010 489,-1046"/>
<text text-anchor="middle" x="449" y="-1025.1" font-family="Times Roman,serif" font-size="11.00">UserSetting</text>
</g>
<!-- \\UserSetting&#45;&gt;\\AppModel -->
<g id="edge27" class="edge"><title>\\UserSetting&#45;&gt;\\AppModel</title>
<path fill="none" stroke="black" d="M408.208,-1022.6C374.131,-1018.09 325.592,-1011.67 290.311,-1007"/>
<polygon fill="none" stroke="black" points="290.65,-1003.51 280.278,-1005.67 289.732,-1010.45 290.65,-1003.51"/>
</g>
<!-- \\Model -->
<g id="node55" class="node"><title>\\Model</title>
<ellipse fill="none" stroke="black" cx="64" cy="-1001" rx="43.8406" ry="18.3848"/>
<text text-anchor="middle" x="64" y="-997.4" font-family="Times Roman,serif" font-size="14.00" fill="gray">\Model</text>
</g>
<!-- \\AppModel&#45;&gt;\\Model -->
<g id="edge29" class="edge"><title>\\AppModel&#45;&gt;\\Model</title>
<path fill="none" stroke="black" d="M209.672,-1001C183.72,-1001 147.979,-1001 118.395,-1001"/>
<polygon fill="none" stroke="black" points="118.214,-997.5 108.214,-1001 118.214,-1004.5 118.214,-997.5"/>
</g>
<!-- \\PasswordReset -->
<g id="node17" class="node"><title>\\PasswordReset</title>
<polygon fill="none" stroke="black" points="736,-952 636,-952 636,-916 736,-916 736,-952"/>
<text text-anchor="middle" x="686" y="-931.1" font-family="Times Roman,serif" font-size="11.00">PasswordReset</text>
</g>
<!-- \\PasswordReset&#45;&gt;\\UsersAppModel -->
<g id="edge31" class="edge"><title>\\PasswordReset&#45;&gt;\\UsersAppModel</title>
<path fill="none" stroke="black" d="M635.738,-931.031C598.943,-928.857 548.831,-925.897 509.783,-923.591"/>
<polygon fill="none" stroke="black" points="509.786,-920.085 499.597,-922.989 509.373,-927.073 509.786,-920.085"/>
</g>
<!-- \\UserProfile -->
<g id="node18" class="node"><title>\\UserProfile</title>
<polygon fill="none" stroke="black" points="724,-844 648,-844 648,-808 724,-808 724,-844"/>
<text text-anchor="middle" x="686" y="-823.1" font-family="Times Roman,serif" font-size="11.00">UserProfile</text>
</g>
<!-- \\UserProfile&#45;&gt;\\UsersAppModel -->
<g id="edge33" class="edge"><title>\\UserProfile&#45;&gt;\\UsersAppModel</title>
<path fill="none" stroke="black" d="M647.796,-837.747C634.963,-842.08 620.691,-847.33 608,-853 574.577,-867.932 569.66,-878.61 536,-893 527.564,-896.607 518.483,-899.965 509.483,-903.003"/>
<polygon fill="none" stroke="black" points="508.203,-899.739 499.783,-906.17 510.376,-906.394 508.203,-899.739"/>
</g>
<!-- \\DiscussionsController -->
<g id="node19" class="node"><title>\\DiscussionsController</title>
<polygon fill="none" stroke="black" points="752,-1438 620,-1438 620,-1402 752,-1402 752,-1438"/>
<text text-anchor="middle" x="686" y="-1417.1" font-family="Times Roman,serif" font-size="11.00">DiscussionsController</text>
</g>
<!-- \\DiscussionsController&#45;&gt;\\ContentsAppController -->
<g id="edge35" class="edge"><title>\\DiscussionsController&#45;&gt;\\ContentsAppController</title>
<path fill="none" stroke="black" d="M619.982,-1427.52C591.925,-1430.72 558.949,-1434.47 529.481,-1437.83"/>
<polygon fill="none" stroke="black" points="528.758,-1434.39 519.218,-1439 529.55,-1441.35 528.758,-1434.39"/>
</g>
<!-- \\HasFormat -->
<g id="node20" class="node"><title>\\HasFormat</title>
<polygon fill="none" stroke="black" points="725,-1006 647,-1006 647,-970 725,-970 725,-1006"/>
<text text-anchor="middle" x="686" y="-985.1" font-family="Times Roman,serif" font-size="11.00">HasFormat</text>
</g>
<!-- \\ContentsController -->
<g id="node21" class="node"><title>\\ContentsController</title>
<polygon fill="none" stroke="black" points="745,-1384 627,-1384 627,-1348 745,-1348 745,-1384"/>
<text text-anchor="middle" x="686" y="-1363.1" font-family="Times Roman,serif" font-size="11.00">ContentsController</text>
</g>
<!-- \\ContentsController&#45;&gt;\\ContentsAppController -->
<g id="edge37" class="edge"><title>\\ContentsController&#45;&gt;\\ContentsAppController</title>
<path fill="none" stroke="black" d="M633.108,-1384.08C597.166,-1396.36 549.465,-1412.66 511.624,-1425.6"/>
<polygon fill="none" stroke="black" points="510.061,-1422.43 501.731,-1428.98 512.325,-1429.06 510.061,-1422.43"/>
</g>
<!-- \\MetaComponent -->
<g id="node22" class="node"><title>\\MetaComponent</title>
<polygon fill="none" stroke="black" points="740,-628 632,-628 632,-592 740,-592 740,-628"/>
<text text-anchor="middle" x="686" y="-607.1" font-family="Times Roman,serif" font-size="11.00">MetaComponent</text>
</g>
<!-- \\MetaComponent&#45;&gt;\\Component -->
<g id="edge39" class="edge"><title>\\MetaComponent&#45;&gt;\\Component</title>
<path fill="none" stroke="black" d="M631.889,-599.637C622.856,-595.739 614.368,-590.376 608,-583 495.387,-452.554 654.089,-327.51 536,-202 532.357,-198.128 528.139,-194.897 523.565,-192.206"/>
<polygon fill="none" stroke="black" points="524.901,-188.962 514.385,-187.667 521.798,-195.237 524.901,-188.962"/>
</g>
<!-- \\EmailAddress -->
<g id="node23" class="node"><title>\\EmailAddress</title>
<polygon fill="none" stroke="black" points="494,-992 404,-992 404,-956 494,-956 494,-992"/>
<text text-anchor="middle" x="449" y="-971.1" font-family="Times Roman,serif" font-size="11.00">EmailAddress</text>
</g>
<!-- \\EmailAddress&#45;&gt;\\AppModel -->
<g id="edge41" class="edge"><title>\\EmailAddress&#45;&gt;\\AppModel</title>
<path fill="none" stroke="black" d="M403.979,-979.959C370.164,-984.434 324.048,-990.538 290.192,-995.019"/>
<polygon fill="none" stroke="black" points="289.56,-991.572 280.106,-996.354 290.479,-998.511 289.56,-991.572"/>
</g>
<!-- \\EmailAddressesController -->
<g id="node24" class="node"><title>\\EmailAddressesController</title>
<polygon fill="none" stroke="black" points="763,-1168 609,-1168 609,-1132 763,-1132 763,-1168"/>
<text text-anchor="middle" x="686" y="-1147.1" font-family="Times Roman,serif" font-size="11.00">EmailAddressesController</text>
</g>
<!-- \\EmailAddressesController&#45;&gt;\\UsersAppController -->
<g id="edge43" class="edge"><title>\\EmailAddressesController&#45;&gt;\\UsersAppController</title>
<path fill="none" stroke="black" d="M622.177,-1168.04C590.618,-1176.96 552.432,-1187.76 519.957,-1196.94"/>
<polygon fill="none" stroke="black" points="518.746,-1193.65 510.076,-1199.73 520.651,-1200.38 518.746,-1193.65"/>
</g>
<!-- \\LoggableBehavior -->
<g id="node25" class="node"><title>\\LoggableBehavior</title>
<polygon fill="none" stroke="black" points="742,-574 630,-574 630,-538 742,-538 742,-574"/>
<text text-anchor="middle" x="686" y="-553.1" font-family="Times Roman,serif" font-size="11.00">LoggableBehavior</text>
</g>
<!-- \\LoggableBehavior&#45;&gt;\\ModelBehavior -->
<g id="edge45" class="edge"><title>\\LoggableBehavior&#45;&gt;\\ModelBehavior</title>
<path fill="none" stroke="black" d="M629.132,-544.374C621.143,-540.603 613.72,-535.61 608,-529 496.657,-400.342 649.407,-279.842 536,-153 532.467,-149.049 528.368,-145.669 523.912,-142.779"/>
<polygon fill="none" stroke="black" points="525.398,-139.601 514.956,-137.805 521.998,-145.72 525.398,-139.601"/>
</g>
<!-- \\UserGroupUser -->
<g id="node26" class="node"><title>\\UserGroupUser</title>
<polygon fill="none" stroke="black" points="736,-790 636,-790 636,-754 736,-754 736,-790"/>
<text text-anchor="middle" x="686" y="-769.1" font-family="Times Roman,serif" font-size="11.00">UserGroupUser</text>
</g>
<!-- \\UserGroupUser&#45;&gt;\\UsersAppModel -->
<g id="edge47" class="edge"><title>\\UserGroupUser&#45;&gt;\\UsersAppModel</title>
<path fill="none" stroke="black" d="M635.187,-784.75C625.651,-788.45 616.134,-793.129 608,-799 565.329,-829.799 579.163,-862.894 536,-893 528.009,-898.573 518.827,-903.028 509.489,-906.579"/>
<polygon fill="none" stroke="black" points="508.043,-903.376 499.744,-909.962 510.339,-909.989 508.043,-903.376"/>
</g>
<!-- \\UserGroupsController -->
<g id="node27" class="node"><title>\\UserGroupsController</title>
<polygon fill="none" stroke="black" points="753,-1276 619,-1276 619,-1240 753,-1240 753,-1276"/>
<text text-anchor="middle" x="686" y="-1255.1" font-family="Times Roman,serif" font-size="11.00">UserGroupsController</text>
</g>
<!-- \\UserGroupsController&#45;&gt;\\UsersAppController -->
<g id="edge49" class="edge"><title>\\UserGroupsController&#45;&gt;\\UsersAppController</title>
<path fill="none" stroke="black" d="M618.719,-1246.36C587.971,-1241.04 551.526,-1234.74 520.305,-1229.34"/>
<polygon fill="none" stroke="black" points="520.816,-1225.87 510.366,-1227.62 519.623,-1232.77 520.816,-1225.87"/>
</g>
<!-- \\AuthorizeComponent -->
<g id="node28" class="node"><title>\\AuthorizeComponent</title>
<polygon fill="none" stroke="black" points="752,-682 620,-682 620,-646 752,-646 752,-682"/>
<text text-anchor="middle" x="686" y="-661.1" font-family="Times Roman,serif" font-size="11.00">AuthorizeComponent</text>
</g>
<!-- \\AuthorizeComponent&#45;&gt;\\Component -->
<g id="edge51" class="edge"><title>\\AuthorizeComponent&#45;&gt;\\Component</title>
<path fill="none" stroke="black" d="M619.923,-647.426C615.479,-644.498 611.419,-641.053 608,-637 481.638,-487.219 668.652,-346.24 536,-202 532.401,-198.087 528.216,-194.826 523.664,-192.113"/>
<polygon fill="none" stroke="black" points="525.028,-188.882 514.518,-187.544 521.9,-195.144 525.028,-188.882"/>
</g>
<!-- \\AppShell -->
<g id="node29" class="node"><title>\\AppShell</title>
<polygon fill="none" stroke="black" points="717,-412 655,-412 655,-376 717,-376 717,-412"/>
<text text-anchor="middle" x="686" y="-391.1" font-family="Times Roman,serif" font-size="11.00">AppShell</text>
</g>
<!-- \\Shell -->
<g id="node68" class="node"><title>\\Shell</title>
<ellipse fill="none" stroke="black" cx="449" cy="-72" rx="38.8909" ry="18.3848"/>
<text text-anchor="middle" x="449" y="-68.4" font-family="Times Roman,serif" font-size="14.00" fill="gray">\Shell</text>
</g>
<!-- \\AppShell&#45;&gt;\\Shell -->
<g id="edge53" class="edge"><title>\\AppShell&#45;&gt;\\Shell</title>
<path fill="none" stroke="black" d="M654.445,-390.152C638.49,-386.633 620.015,-379.897 608,-367 523.93,-276.758 621.518,-187.872 536,-99 525.852,-88.4545 511.673,-82.0049 497.703,-78.0681"/>
<polygon fill="none" stroke="black" points="498.171,-74.5802 487.628,-75.6229 496.52,-81.3827 498.171,-74.5802"/>
</g>
<!-- \\User -->
<g id="node30" class="node"><title>\\User</title>
<polygon fill="none" stroke="black" points="713,-1060 659,-1060 659,-1024 713,-1024 713,-1060"/>
<text text-anchor="middle" x="686" y="-1039.1" font-family="Times Roman,serif" font-size="11.00">User</text>
</g>
<!-- \\User&#45;&gt;\\UsersAppModel -->
<g id="edge55" class="edge"><title>\\User&#45;&gt;\\UsersAppModel</title>
<path fill="none" stroke="black" d="M658.764,-1035.63C643.185,-1031.26 623.685,-1024.51 608,-1015 570.362,-992.18 574.002,-969.209 536,-947 527.792,-942.203 518.641,-938.17 509.442,-934.807"/>
<polygon fill="none" stroke="black" points="510.472,-931.46 499.877,-931.54 508.21,-938.084 510.472,-931.46"/>
</g>
<!-- \\UserGroup -->
<g id="node31" class="node"><title>\\UserGroup</title>
<polygon fill="none" stroke="black" points="487,-884 411,-884 411,-848 487,-848 487,-884"/>
<text text-anchor="middle" x="449" y="-863.1" font-family="Times Roman,serif" font-size="11.00">UserGroup</text>
</g>
<!-- \\UserGroup&#45;&gt;\\AppModel -->
<g id="edge57" class="edge"><title>\\UserGroup&#45;&gt;\\AppModel</title>
<path fill="none" stroke="black" d="M410.656,-873.964C394.921,-878.214 376.932,-884.387 362,-893 324.351,-914.715 288.815,-950.495 266.998,-974.872"/>
<polygon fill="none" stroke="black" points="264.119,-972.845 260.142,-982.665 269.375,-977.469 264.119,-972.845"/>
</g>
<!-- \\ContentsAppController&#45;&gt;\\AppController -->
<g id="edge59" class="edge"><title>\\ContentsAppController&#45;&gt;\\AppController</title>
<path fill="none" stroke="black" d="M418.899,-1429C383.192,-1407.64 323.567,-1371.99 284.263,-1348.48"/>
<polygon fill="none" stroke="black" points="285.603,-1345.2 275.224,-1343.08 282.01,-1351.21 285.603,-1345.2"/>
</g>
<!-- \\AppHelper -->
<g id="node33" class="node"><title>\\AppHelper</title>
<polygon fill="none" stroke="black" points="722,-358 650,-358 650,-322 722,-322 722,-358"/>
<text text-anchor="middle" x="686" y="-337.1" font-family="Times Roman,serif" font-size="11.00">AppHelper</text>
</g>
<!-- \\Helper -->
<g id="node73" class="node"><title>\\Helper</title>
<ellipse fill="none" stroke="black" cx="449" cy="-18" rx="46.1672" ry="18.3848"/>
<text text-anchor="middle" x="449" y="-14.4" font-family="Times Roman,serif" font-size="14.00" fill="gray">\Helper</text>
</g>
<!-- \\AppHelper&#45;&gt;\\Helper -->
<g id="edge61" class="edge"><title>\\AppHelper&#45;&gt;\\Helper</title>
<path fill="none" stroke="black" d="M649.312,-334.925C634.657,-331.141 618.745,-324.534 608,-313 523.93,-222.758 621.518,-133.872 536,-45 527.261,-35.9181 515.531,-29.8741 503.52,-25.8567"/>
<polygon fill="none" stroke="black" points="504.459,-22.4847 493.879,-23.05 502.502,-29.2057 504.459,-22.4847"/>
</g>
<!-- \\ScrubableBehavior -->
<g id="node34" class="node"><title>\\ScrubableBehavior</title>
<polygon fill="none" stroke="black" points="745,-466 627,-466 627,-430 745,-430 745,-466"/>
<text text-anchor="middle" x="686" y="-445.1" font-family="Times Roman,serif" font-size="11.00">ScrubableBehavior</text>
</g>
<!-- \\ScrubableBehavior&#45;&gt;\\ModelBehavior -->
<g id="edge63" class="edge"><title>\\ScrubableBehavior&#45;&gt;\\ModelBehavior</title>
<path fill="none" stroke="black" d="M626.8,-434.673C619.795,-431.137 613.275,-426.662 608,-421 523.93,-330.758 621.518,-241.872 536,-153 532.162,-149.011 527.747,-145.609 522.985,-142.707"/>
<polygon fill="none" stroke="black" points="524.565,-139.583 514.088,-138.004 521.294,-145.771 524.565,-139.583"/>
</g>
<!-- \\PostsController -->
<g id="node35" class="node"><title>\\PostsController</title>
<polygon fill="none" stroke="black" points="735,-1600 637,-1600 637,-1564 735,-1564 735,-1600"/>
<text text-anchor="middle" x="686" y="-1579.1" font-family="Times Roman,serif" font-size="11.00">PostsController</text>
</g>
<!-- \\PostsController&#45;&gt;\\ContentsAppController -->
<g id="edge65" class="edge"><title>\\PostsController&#45;&gt;\\ContentsAppController</title>
<path fill="none" stroke="black" d="M636.092,-1566.92C626.578,-1563.44 616.838,-1559.43 608,-1555 560.56,-1531.2 510.695,-1495.29 479.73,-1471.5"/>
<polygon fill="none" stroke="black" points="481.562,-1468.49 471.515,-1465.13 477.274,-1474.02 481.562,-1468.49"/>
</g>
<!-- \\Scrub -->
<g id="node36" class="node"><title>\\Scrub</title>
<polygon fill="none" stroke="black" points="713,-304 659,-304 659,-268 713,-268 713,-304"/>
<text text-anchor="middle" x="686" y="-283.1" font-family="Times Roman,serif" font-size="11.00">Scrub</text>
</g>
<!-- \\StringHash -->
<g id="node37" class="node"><title>\\StringHash</title>
<polygon fill="none" stroke="black" points="724,-250 648,-250 648,-214 724,-214 724,-250"/>
<text text-anchor="middle" x="686" y="-229.1" font-family="Times Roman,serif" font-size="11.00">StringHash</text>
</g>
</g>
</svg>
